HIERARCHY
ROOT hip
{
	OFFSET 0.000000 0.000000 0.000000
	CHANNELS 6 Xposition Yposition Zposition Zrotation Yrotation Xrotation 
	JOINT lhipjoint
	{
		OFFSET 0.000000 0.000000 0.000000
		CHANNELS 3 Zrotation Yrotation Xrotation
		JOINT lfemur
		{
			OFFSET 1.363060 -1.794630 0.839290
			CHANNELS 3 Zrotation Yrotation Xrotation
			JOINT ltibia
			{
				OFFSET 2.448110 -6.726130 0.000000
				CHANNELS 3 Zrotation Yrotation Xrotation
				JOINT lfoot
				{
					OFFSET 2.562200 -7.039590 0.000000
					CHANNELS 3 Zrotation Yrotation Xrotation
					JOINT ltoes
					{
						OFFSET 0.157640 -0.433110 2.322550
						CHANNELS 3 Zrotation Yrotation Xrotation
						End Site
						{
							OFFSET 0.000000 0.000000 0.000000
						}
					}
				}
			}
		}
	}
	JOINT rhipjoint
	{
		OFFSET 0.000000 0.000000 0.000000
		CHANNELS 3 Zrotation Yrotation Xrotation
		JOINT rfemur
		{
			OFFSET -1.305520 -1.794630 0.839290
			CHANNELS 3 Zrotation Yrotation Xrotation
			JOINT rtibia
			{
				OFFSET -2.542530 -6.985550 0.000000
				CHANNELS 3 Zrotation Yrotation Xrotation
				JOINT rfoot
				{
					OFFSET -2.568260 -7.056230 0.000000
					CHANNELS 3 Zrotation Yrotation Xrotation
					JOINT rtoes
					{
						OFFSET -0.164730 -0.452590 2.363150
						CHANNELS 3 Zrotation Yrotation Xrotation
						End Site
						{
							OFFSET 0.000000 0.000000 0.000000
						}
					}
				}
			}
		}
	}
	JOINT lowerback
	{
		OFFSET 0.000000 0.000000 0.000000
		CHANNELS 3 Zrotation Yrotation Xrotation
		JOINT upperback
		{
			OFFSET 0.028270 2.035590 -0.193380
			CHANNELS 3 Zrotation Yrotation Xrotation
			JOINT thorax
			{
				OFFSET 0.056720 2.048850 -0.042750
				CHANNELS 3 Zrotation Yrotation Xrotation
				JOINT lowerneck
				{
					OFFSET 0.000000 0.000000 0.000000
					CHANNELS 3 Zrotation Yrotation Xrotation
					JOINT upperneck
					{
						OFFSET -0.054170 1.746240 0.172020
						CHANNELS 3 Zrotation Yrotation Xrotation
						JOINT head
						{
							OFFSET 0.104070 1.761360 -0.123970
							CHANNELS 3 Zrotation Yrotation Xrotation
							End Site
							{
								OFFSET 0.000000 0.000000 0.000000
							}
						}
					}
				}
				JOINT lclavicle
				{
					OFFSET 0.000000 0.000000 0.000000
					CHANNELS 3 Zrotation Yrotation Xrotation
					JOINT lhumerus
					{
						OFFSET 3.362410 1.200890 -0.311210
						CHANNELS 3 Zrotation Yrotation Xrotation
						JOINT lradius
						{
							OFFSET 4.983000 -0.000000 -0.000000
							CHANNELS 3 Zrotation Yrotation Xrotation
							JOINT lwrist
							{
								OFFSET 3.483560 -0.000000 -0.000000
								CHANNELS 3 Zrotation Yrotation Xrotation
								JOINT lhand
								{
									OFFSET 0.000000 0.000000 0.000000
									CHANNELS 3 Zrotation Yrotation Xrotation
									JOINT lfingers
									{
										OFFSET 0.715260 -0.000000 -0.000000
										CHANNELS 3 Zrotation Yrotation Xrotation
										End Site
										{
											OFFSET 0.000000 0.000000 0.000000
										}
									}
								}
								JOINT lthumb
								{
									OFFSET 0.000000 0.000000 0.000000
									CHANNELS 3 Zrotation Yrotation Xrotation
									End Site
									{
										OFFSET 0.000000 0.000000 0.000000
									}
								}
							}
						}
					}
				}
				JOINT rclavicle
				{
					OFFSET 0.000000 0.000000 0.000000
					CHANNELS 3 Zrotation Yrotation Xrotation
					JOINT rhumerus
					{
						OFFSET -3.136600 1.374050 -0.404650
						CHANNELS 3 Zrotation Yrotation Xrotation
						JOINT rradius
						{
							OFFSET -5.241900 -0.000000 -0.000000
							CHANNELS 3 Zrotation Yrotation Xrotation
							JOINT rwrist
							{
								OFFSET -3.444170 -0.000000 -0.000000
								CHANNELS 3 Zrotation Yrotation Xrotation
								JOINT rhand
								{
									OFFSET 0.000000 0.000000 0.000000
									CHANNELS 3 Zrotation Yrotation Xrotation
									JOINT rfingers
									{
										OFFSET -0.622530 -0.000000 -0.000000
										CHANNELS 3 Zrotation Yrotation Xrotation
										End Site
										{
											OFFSET 0.000000 0.000000 0.000000
										}
									}
								}
								JOINT rthumb
								{
									OFFSET 0.000000 0.000000 0.000000
									CHANNELS 3 Zrotation Yrotation Xrotation
									End Site
									{
										OFFSET 0.000000 0.000000 0.000000
									}
								}
							}
						}
					}
				}
			}
		}
	}
}
MOTION
Frames: 5
Frame Time: 0.008333
-15.706902 15.150174 -3.735230 22.843629 -49.529017 3.045051 -8.497973 -1.928907 -3.529953 -2.805681 -26.637485 -58.224677 14.334413 15.498791 71.068629 -0.734532 -22.761913 7.259306 -0.000000 -0.023300 -0.064000 9.722246 0.463289 1.053173 -9.503796 -4.417768 -73.814003 -15.090786 -16.039008 75.513863 -0.907870 20.794607 -2.701660 -0.155800 -2.543100 7.009100 5.158619 1.126183 45.044185 0.852055 0.071798 2.744310 -7.646564 1.134078 12.512156 -6.917269 -10.083174 13.311342 3.416408 -15.718291 -3.883241 2.705700 -7.145600 -7.384400 -7.129635 -4.308620 5.454380 -76.320219 -6.775695 40.579103 21.387858 -34.156054 -6.784117 0.211905 1.769282 8.833439 31.298342 -13.995791 -9.584500 -7.125000 0.000000 0.000000 2.417600 11.351000 -1.896200 11.447041 3.155196 2.591337 -8.369062 39.141149 -35.374815 -15.441050 37.491530 -6.114169 0.251819 0.508875 -6.549110 -11.753054 4.790028 -0.917800 7.125000 0.000000 0.000000 10.954800 -25.565500 5.245900 
-15.720876 15.156892 -3.734424 22.911470 -49.444279 2.914318 -8.493924 -1.927234 -3.532504 -2.877753 -26.749605 -58.004587 14.301622 15.494834 70.956650 -0.738411 -22.782370 7.272955 0.001300 -0.235100 -0.646000 9.726956 0.465072 1.057908 -9.535789 -4.516992 -73.633063 -15.070884 -16.052149 75.465480 -0.906880 20.797696 -2.764957 -0.159300 -2.571400 7.087600 5.165884 1.079312 44.944273 0.838197 0.008254 2.719558 -7.702684 1.117656 12.447450 -7.014693 -9.993498 13.338648 3.377477 -15.618556 -3.804821 2.700700 -7.091400 -7.359400 -7.137100 -4.311548 5.457387 -76.371087 -6.814648 40.565210 21.382652 -34.147951 -6.775030 0.235977 1.764187 9.005969 31.059352 -14.316374 -9.667900 -7.125000 0.000000 0.000000 2.208000 11.036900 -1.745800 11.422019 3.157104 2.577769 -8.112145 39.224237 -34.975000 -15.276754 37.336039 -6.028995 0.254590 0.503680 -6.502036 -11.673298 4.824430 -0.920100 7.125000 0.000000 0.000000 11.009800 -25.526600 5.283400 
-15.733776 15.166388 -3.733438 22.933075 -49.392693 2.797511 -8.486034 -1.923813 -3.534735 -2.931812 -26.821980 -57.749156 14.262141 15.493229 70.825132 -0.743729 -22.804415 7.332856 0.003000 -0.354300 -0.973400 9.722309 0.463493 1.061103 -9.529011 -4.560671 -73.406873 -15.043393 -16.061048 75.384610 -0.904665 20.801421 -2.831467 -0.163100 -2.602000 7.172500 5.168827 1.038939 44.849753 0.823794 -0.051050 2.700353 -7.748933 1.100138 12.408300 -7.145870 -9.899070 13.236391 3.331616 -15.508199 -3.687339 2.687900 -7.034600 -7.292800 -7.145523 -4.303140 5.454331 -76.438126 -6.878595 40.490037 21.383019 -34.140548 -6.768128 0.255610 1.759507 9.205864 30.808506 -14.519734 -9.679600 -7.125000 0.000000 0.000000 2.009400 10.859400 -1.595900 11.395703 3.150010 2.570715 -7.898852 39.439016 -34.865517 -15.013526 37.104735 -5.906597 0.261650 0.493830 -6.201028 -11.522151 4.937246 -0.933900 7.125000 0.000000 0.000000 11.109800 -25.406200 5.364900 
-15.746227 15.177495 -3.732542 23.000138 -49.368067 2.602320 -8.473957 -1.917031 -3.539071 -3.045781 -26.877653 -57.421599 14.219348 15.496131 70.681176 -0.749900 -22.840562 7.296376 0.008000 -0.577600 -1.587100 9.716030 0.464900 1.061470 -9.547405 -4.589557 -73.125158 -15.009078 -16.068893 75.284029 -0.903469 20.787638 -2.919341 -0.159500 -2.572800 7.091600 5.112735 1.033694 44.771584 0.810841 -0.082624 2.691872 -7.755255 1.083019 12.404054 -7.281976 -9.815419 12.989302 3.247459 -15.395400 -3.454751 2.646700 -6.980000 -7.162700 -7.152221 -4.288690 5.449756 -76.509851 -6.968562 40.399190 21.381122 -34.133634 -6.767552 0.264807 1.758928 9.355889 30.761051 -14.604240 -9.707300 -7.125000 0.000000 0.000000 1.964700 10.772200 -1.563800 11.375057 3.141719 2.560687 -7.729035 39.639691 -34.815078 -14.743319 36.864604 -5.782557 0.269151 0.485452 -5.910368 -11.384822 5.055356 -0.949100 7.125000 0.000000 0.000000 11.198500 -25.282000 5.442400 
-15.758141 15.189767 -3.729676 23.033021 -49.353847 2.438837 -8.460624 -1.913436 -3.546347 -3.132711 -26.947288 -57.075836 14.170466 15.497274 70.517661 -0.753353 -22.855256 7.251197 0.014600 -0.779700 -2.143000 9.708554 0.465043 1.060350 -9.539531 -4.627124 -72.836330 -14.967900 -16.077582 75.160654 -0.895464 20.790289 -2.926368 -0.166300 -2.627400 7.243000 5.106245 1.039048 44.640930 0.792537 -0.098971 2.699930 -7.818897 1.088525 12.480566 -7.287288 -9.785570 12.620226 3.112551 -15.307480 -3.213786 2.561800 -6.941700 -7.021000 -7.163104 -4.252169 5.443601 -76.508285 -7.132974 40.354792 21.376174 -34.118221 -6.766998 0.263146 1.759117 9.461531 30.841247 -14.549146 -9.709300 -7.125000 0.000000 0.000000 2.027300 10.818500 -1.611800 11.364949 3.136320 2.547026 -7.572002 39.863603 -34.961788 -14.369603 36.524827 -5.616894 0.281083 0.478525 -5.531103 -11.307834 5.303613 -0.995400 7.125000 0.000000 0.000000 11.229100 -25.028600 5.525400 
